<svg version="1.1" id="Layer_1" xmlns="http://www.w3.org/2000/svg" xmlns:xlink="http://www.w3.org/1999/xlink" x="0px" y="0px"
	 width="100%" viewBox="0 0 1024 1024" enable-background="new 0 0 1024 1024" xml:space="preserve">
<path fill="#8FB8FF" opacity="1.000000" stroke="none" 
	d="
M448.000000,1025.000000 
	C298.666656,1025.000000 149.833328,1025.000000 1.000000,1025.000000 
	C1.000000,683.666687 1.000000,342.333344 1.000000,1.000000 
	C342.333344,1.000000 683.666687,1.000000 1025.000000,1.000000 
	C1025.000000,342.333344 1025.000000,683.666687 1025.000000,1025.000000 
	C832.833313,1025.000000 640.666687,1025.000000 448.000000,1025.000000 
M481.975647,493.613312 
	C483.690186,497.238464 485.404724,500.863647 487.262604,504.791931 
	C448.687469,504.791931 411.113098,504.791931 373.538696,504.791931 
	C388.754608,502.704773 403.181793,498.420807 416.475433,490.764404 
	C440.858612,476.721222 456.826294,455.421631 467.907379,430.112549 
	C481.883301,398.191711 487.075897,364.462311 487.993103,329.901245 
	C488.061798,327.311829 488.002106,324.718994 488.002106,321.826691 
	C449.066437,322.027557 414.333862,333.252289 382.910400,354.698547 
	C354.958893,330.441071 328.501770,318.236511 311.715210,322.082672 
	C311.715210,350.914337 311.715210,379.850891 311.715210,408.502808 
	C302.126343,410.430206 292.885986,411.760132 283.936584,414.170410 
	C216.609863,432.303131 172.350723,500.480438 183.283386,568.891357 
	C194.440140,638.704529 251.619781,687.982056 322.280487,688.054260 
	C476.925964,688.212280 631.571716,688.105286 786.217407,688.106506 
	C787.822815,688.106506 789.428162,688.106445 791.953857,688.106445 
	C790.970642,678.103760 790.525024,668.791138 789.082336,659.635559 
	C775.420959,572.940063 702.512207,508.260010 614.830994,505.920441 
	C574.864258,504.854004 534.850220,505.561859 494.857605,505.465759 
	C492.981415,505.461243 491.105225,505.465149 488.701477,505.465149 
	C490.700043,497.473999 493.961182,491.187836 499.543549,486.819305 
	C504.823792,482.687225 510.984314,479.679901 515.920776,476.685516 
	C497.574005,476.685516 478.212677,476.685516 458.345184,476.685516 
	C474.537964,484.180389 475.787567,485.065552 481.975647,493.613312 
M663.955200,380.500000 
	C663.955200,360.902100 663.955200,341.304230 663.955200,321.238342 
	C635.148438,322.037323 613.214294,335.155823 594.180542,355.455902 
	C627.942871,380.246735 650.692383,412.362762 663.955200,451.416199 
	C663.955200,428.110809 663.955200,404.805389 663.955200,380.500000 
M542.469055,426.963104 
	C537.679626,431.432953 533.013672,435.989471 530.612793,442.566376 
	C552.054565,446.184814 582.430786,423.924805 583.589600,411.260590 
	C567.982300,410.989075 554.751892,416.718170 542.469055,426.963104 
z"/>
<path fill="#283841" opacity="1.000000" stroke="none" 
	d="
M481.772034,493.311707 
	C475.787567,485.065552 474.537964,484.180389 458.345184,476.685516 
	C478.212677,476.685516 497.574005,476.685516 515.920776,476.685516 
	C510.984314,479.679901 504.823792,482.687225 499.543549,486.819305 
	C493.961182,491.187836 490.700043,497.473999 488.701477,505.465149 
	C491.105225,505.465149 492.981415,505.461243 494.857605,505.465759 
	C534.850220,505.561859 574.864258,504.854004 614.830994,505.920441 
	C702.512207,508.260010 775.420959,572.940063 789.082336,659.635559 
	C790.525024,668.791138 790.970642,678.103760 791.953857,688.106445 
	C789.428162,688.106445 787.822815,688.106506 786.217407,688.106506 
	C631.571716,688.105286 476.925964,688.212280 322.280487,688.054260 
	C251.619781,687.982056 194.440140,638.704529 183.283386,568.891357 
	C172.350723,500.480438 216.609863,432.303131 283.936584,414.170410 
	C292.885986,411.760132 302.126343,410.430206 311.715210,408.502808 
	C311.715210,379.850891 311.715210,350.914337 311.715210,322.082672 
	C328.501770,318.236511 354.958893,330.441071 382.910400,354.698547 
	C414.333862,333.252289 449.066437,322.027557 488.002106,321.826691 
	C488.002106,324.718994 488.061798,327.311829 487.993103,329.901245 
	C487.075897,364.462311 481.883301,398.191711 467.907379,430.112549 
	C456.826294,455.421631 440.858612,476.721222 416.475433,490.764404 
	C403.181793,498.420807 388.754608,502.704773 373.538696,504.791931 
	C411.113098,504.791931 448.687469,504.791931 487.262604,504.791931 
	C485.404724,500.863647 483.690186,497.238464 481.772034,493.311707 
M425.823822,421.672577 
	C415.351776,414.926117 404.163727,410.735870 391.247284,411.411865 
	C396.403809,428.546936 428.382202,446.929962 443.922882,442.300232 
	C442.317749,436.029510 436.452606,429.233765 425.823822,421.672577 
z"/>
<path fill="#293943" opacity="1.000000" stroke="none" 
	d="
M663.955200,381.000000 
	C663.955200,404.805389 663.955200,428.110809 663.955200,451.416199 
	C650.692383,412.362762 627.942871,380.246735 594.180542,355.455902 
	C613.214294,335.155823 635.148438,322.037323 663.955200,321.238342 
	C663.955200,341.304230 663.955200,360.902100 663.955200,381.000000 
z"/>
<path fill="#2A3B45" opacity="1.000000" stroke="none" 
	d="
M542.735107,426.727661 
	C554.751892,416.718170 567.982300,410.989075 583.589600,411.260590 
	C582.430786,423.924805 552.054565,446.184814 530.612793,442.566376 
	C533.013672,435.989471 537.679626,431.432953 542.735107,426.727661 
z"/>
<path fill="#8DB6FC" opacity="1.000000" stroke="none" 
	d="
M426.132416,421.858582 
	C436.452606,429.233765 442.317749,436.029510 443.922882,442.300232 
	C428.382202,446.929962 396.403809,428.546936 391.247284,411.411865 
	C404.163727,410.735870 415.351776,414.926117 426.132416,421.858582 
z"/>
</svg>